<svg width="158" height="157" viewBox="0 0 158 157" fill="none" xmlns="http://www.w3.org/2000/svg">
<g filter="url(#filter0_d_3_2737)">
<circle cx="79" cy="63.5" r="48.5" fill="#FF2D59"/>
<path d="M78.3117 55.6649H71.8367C71.1524 55.6647 70.4847 55.8751 69.9242 56.2675C69.3636 56.6599 68.9374 57.2153 68.7034 57.8583L62.4367 75.0949C62.215 75.7033 62.3667 76.3849 62.8234 76.8433L63.3117 77.3316L74.015 66.6283C74.0134 66.5849 74.0017 66.5416 74.0017 66.4983C74.0017 66.0038 74.1483 65.5205 74.423 65.1094C74.6977 64.6982 75.0882 64.3778 75.545 64.1886C76.0018 63.9994 76.5045 63.9499 76.9894 64.0463C77.4744 64.1428 77.9198 64.3809 78.2695 64.7305C78.6191 65.0801 78.8572 65.5256 78.9537 66.0106C79.0501 66.4955 79.0006 66.9982 78.8114 67.455C78.6222 67.9118 78.3017 68.3022 77.8906 68.5769C77.4795 68.8517 76.9962 68.9983 76.5017 68.9983C76.4584 68.9983 76.415 68.9866 76.3717 68.9849L65.6684 79.6883L66.1567 80.1766C66.3808 80.4013 66.6645 80.5571 66.9743 80.6256C67.2841 80.6941 67.6071 80.6725 67.905 80.5633L85.1417 74.2949C85.7847 74.0609 86.3401 73.6347 86.7325 73.0742C87.1249 72.5136 87.3352 71.8459 87.335 71.1616V64.6866L90.6667 61.3566L81.6434 52.3333L78.3117 55.6649ZM92.2334 59.1016L83.9 50.7683L87.4334 47.2333L95.7667 55.5666L92.2334 59.1016Z" fill="white"/>
</g>
<defs>
<filter id="filter0_d_3_2737" x="0.5" y="0" width="157" height="157" filterUnits="userSpaceOnUse" color-interpolation-filters="sRGB">
<feFlood flood-opacity="0" result="BackgroundImageFix"/>
<feColorMatrix in="SourceAlpha" type="matrix" values="0 0 0 0 0 0 0 0 0 0 0 0 0 0 0 0 0 0 127 0" result="hardAlpha"/>
<feOffset dy="15"/>
<feGaussianBlur stdDeviation="15"/>
<feComposite in2="hardAlpha" operator="out"/>
<feColorMatrix type="matrix" values="0 0 0 0 1 0 0 0 0 0.176471 0 0 0 0 0.34902 0 0 0 0.4 0"/>
<feBlend mode="normal" in2="BackgroundImageFix" result="effect1_dropShadow_3_2737"/>
<feBlend mode="normal" in="SourceGraphic" in2="effect1_dropShadow_3_2737" result="shape"/>
</filter>
</defs>
</svg>
