<svg width="158" height="157" viewBox="0 0 158 157" fill="none" xmlns="http://www.w3.org/2000/svg">
<g filter="url(#filter0_d_3_2768)">
<circle cx="79" cy="63.5" r="48.5" fill="#007BFF"/>
<rect width="40" height="40" transform="translate(58 44)" fill="#007BFF"/>
<path d="M93 55.6667H83C82.558 55.6667 82.134 55.8423 81.8215 56.1548C81.5089 56.4674 81.3333 56.8913 81.3333 57.3333V62.3333H78V50.6667C78 50.2246 77.8244 49.8007 77.5118 49.4882C77.1993 49.1756 76.7753 49 76.3333 49H63C62.558 49 62.134 49.1756 61.8215 49.4882C61.5089 49.8007 61.3333 50.2246 61.3333 50.6667V77.3333C61.3333 77.7754 61.5089 78.1993 61.8215 78.5118C62.134 78.8244 62.558 79 63 79H93C93.442 79 93.8659 78.8244 94.1785 78.5118C94.4911 78.1993 94.6666 77.7754 94.6666 77.3333V57.3333C94.6666 56.8913 94.4911 56.4674 94.1785 56.1548C93.8659 55.8423 93.442 55.6667 93 55.6667ZM71.3333 54H74.6666V57.3333H71.3333V54ZM68 70.6667H64.6666V67.3333H68V70.6667ZM68 64H64.6666V60.6667H68V64ZM68 57.3333H64.6666V54H68V57.3333ZM74.6666 70.6667H71.3333V67.3333H74.6666V70.6667ZM74.6666 64H71.3333V60.6667H74.6666V64ZM89.6666 70.6667H86.3333V67.3333H89.6666V70.6667ZM89.6666 64H86.3333V60.6667H89.6666V64Z" fill="white"/>
</g>
<defs>
<filter id="filter0_d_3_2768" x="0.5" y="0" width="157" height="157" filterUnits="userSpaceOnUse" color-interpolation-filters="sRGB">
<feFlood flood-opacity="0" result="BackgroundImageFix"/>
<feColorMatrix in="SourceAlpha" type="matrix" values="0 0 0 0 0 0 0 0 0 0 0 0 0 0 0 0 0 0 127 0" result="hardAlpha"/>
<feOffset dy="15"/>
<feGaussianBlur stdDeviation="15"/>
<feComposite in2="hardAlpha" operator="out"/>
<feColorMatrix type="matrix" values="0 0 0 0 0 0 0 0 0 0.482353 0 0 0 0 1 0 0 0 0.4 0"/>
<feBlend mode="normal" in2="BackgroundImageFix" result="effect1_dropShadow_3_2768"/>
<feBlend mode="normal" in="SourceGraphic" in2="effect1_dropShadow_3_2768" result="shape"/>
</filter>
</defs>
</svg>
