<svg width="158" height="157" viewBox="0 0 158 157" fill="none" xmlns="http://www.w3.org/2000/svg">
<g filter="url(#filter0_d_3_2778)">
<circle cx="79" cy="63.5" r="48.5" fill="#FF6800"/>
<rect width="40" height="40" transform="translate(59 44)" fill="#FF6800"/>
<path d="M69 79H64C63.558 79 63.1341 78.8244 62.8215 78.5119C62.5089 78.1993 62.3333 77.7754 62.3333 77.3334V64C62.3333 63.558 62.5089 63.1341 62.8215 62.8215C63.1341 62.509 63.558 62.3334 64 62.3334H69C69.442 62.3334 69.866 62.509 70.1785 62.8215C70.4911 63.1341 70.6667 63.558 70.6667 64V77.3334C70.6667 77.7754 70.4911 78.1993 70.1785 78.5119C69.866 78.8244 69.442 79 69 79ZM80.6667 79H75.6667C75.2246 79 74.8007 78.8244 74.4882 78.5119C74.1756 78.1993 74 77.7754 74 77.3334V49C74 48.558 74.1756 48.1341 74.4882 47.8215C74.8007 47.509 75.2246 47.3334 75.6667 47.3334H80.6667C81.1087 47.3334 81.5326 47.509 81.8452 47.8215C82.1577 48.1341 82.3333 48.558 82.3333 49V77.3334C82.3333 77.7754 82.1577 78.1993 81.8452 78.5119C81.5326 78.8244 81.1087 79 80.6667 79ZM92.3333 79H87.3333C86.8913 79 86.4674 78.8244 86.1548 78.5119C85.8423 78.1993 85.6667 77.7754 85.6667 77.3334V59C85.6667 58.558 85.8423 58.1341 86.1548 57.8215C86.4674 57.509 86.8913 57.3334 87.3333 57.3334H92.3333C92.7754 57.3334 93.1993 57.509 93.5119 57.8215C93.8244 58.1341 94 58.558 94 59V77.3334C94 77.7754 93.8244 78.1993 93.5119 78.5119C93.1993 78.8244 92.7754 79 92.3333 79Z" fill="white"/>
</g>
<defs>
<filter id="filter0_d_3_2778" x="0.5" y="0" width="157" height="157" filterUnits="userSpaceOnUse" color-interpolation-filters="sRGB">
<feFlood flood-opacity="0" result="BackgroundImageFix"/>
<feColorMatrix in="SourceAlpha" type="matrix" values="0 0 0 0 0 0 0 0 0 0 0 0 0 0 0 0 0 0 127 0" result="hardAlpha"/>
<feOffset dy="15"/>
<feGaussianBlur stdDeviation="15"/>
<feComposite in2="hardAlpha" operator="out"/>
<feColorMatrix type="matrix" values="0 0 0 0 1 0 0 0 0 0.407843 0 0 0 0 0 0 0 0 0.4 0"/>
<feBlend mode="normal" in2="BackgroundImageFix" result="effect1_dropShadow_3_2778"/>
<feBlend mode="normal" in="SourceGraphic" in2="effect1_dropShadow_3_2778" result="shape"/>
</filter>
</defs>
</svg>
