<svg width="66" height="35" viewBox="0 0 66 35" fill="none" xmlns="http://www.w3.org/2000/svg">
<path fill-rule="evenodd" clip-rule="evenodd" d="M58.1118 0.182129V13.7956H58.0254C56.3011 11.8138 54.1459 11.1231 51.6469 11.1231C46.526 11.1231 42.6682 14.6068 41.3141 19.2089C39.7694 14.137 35.7864 11.0282 29.8816 11.0282C25.085 11.0282 21.2988 13.1804 19.3209 16.6881V12.3295H9.40811V7.59668H20.227V0.182129H0.571777V33.4485H9.40811V19.4656H18.2157C17.9444 20.5408 17.8088 21.6458 17.812 22.7548C17.812 29.691 23.1126 34.5653 29.88 34.5653C35.5687 34.5653 39.3207 31.8921 41.3032 27.0256H33.73C32.7064 28.4901 31.9287 28.9226 29.8808 28.9226C27.507 28.9226 25.4583 26.8506 25.4583 24.3975H40.8786C41.5474 29.908 45.8408 34.6595 51.7332 34.6595C54.275 34.6595 56.6021 33.4096 58.0247 31.2979H58.1102V33.4531H65.9012V0.182129H58.1118ZM25.7041 19.5651C26.1964 17.4511 27.8352 16.0698 29.8808 16.0698C32.1332 16.0698 33.6888 17.4084 34.0971 19.5651H25.7041ZM48.7287 22.9173C48.7287 25.7111 50.5129 28.3859 53.3837 28.3859C56.5274 28.3859 57.8854 25.7469 57.8854 22.9173C57.8854 19.9322 56.6029 17.0615 53.3837 17.0615C50.2811 17.0615 48.7287 19.9307 48.7287 22.9173Z" fill="#ABAFC7"/>
</svg>
