<svg width="17" height="16" viewBox="0 0 17 16" fill="none" xmlns="http://www.w3.org/2000/svg">
<path d="M16.978 6.14073C16.9253 5.97943 16.787 5.86421 16.6191 5.83787L11.6154 5.12681L9.36372 0.60041C9.288 0.448981 9.13328 0.353516 8.96539 0.353516C8.79751 0.353516 8.64279 0.448981 8.56707 0.603703L6.34502 5.14327L1.34128 5.88725C1.1734 5.91359 1.03514 6.0288 0.982465 6.19011C0.929794 6.35141 0.975881 6.52918 1.09768 6.6444L4.72868 10.1635L3.88924 15.1474C3.85961 15.3153 3.92874 15.4832 4.067 15.582C4.14272 15.6379 4.23489 15.6676 4.32707 15.6676C4.39949 15.6676 4.46862 15.6511 4.53446 15.6149L9.00161 13.248L13.4819 15.5886C13.5478 15.6215 13.6169 15.6379 13.686 15.6379C13.9296 15.6379 14.1304 15.4371 14.1304 15.1935C14.1304 15.1573 14.1271 15.1244 14.1173 15.0915L13.2515 10.1371L16.8594 6.59831C16.9878 6.4798 17.0306 6.30203 16.978 6.14073Z" fill="#4C40F7"/>
</svg>
